<svg width="30" height="30" viewBox="0 0 30 30" fill="none" xmlns="http://www.w3.org/2000/svg">
<rect width="30" height="30" rx="6.90789" fill="#FA6650"/>
<path fill-rule="evenodd" clip-rule="evenodd" d="M14.9099 7.64991C14.9321 7.6467 14.9544 7.64349 14.9776 7.64349C19.6991 7.64349 23.5404 11.4816 23.5404 16.1993C23.5404 16.4771 23.5267 16.7577 23.4996 17.0334C23.3912 18.1378 22.4622 18.9706 21.339 18.9706C20.1414 18.9706 19.1672 17.9972 19.1672 16.8007C19.1672 15.195 18.7514 13.6181 17.9645 12.2301C17.8153 11.9669 17.908 11.6326 18.1714 11.4835C18.4348 11.3345 18.7695 11.4268 18.9187 11.6901C19.7987 13.2425 20.2638 15.0062 20.2638 16.7904C20.2638 17.3931 20.7461 17.875 21.339 17.875C21.8863 17.875 22.356 17.4583 22.4082 16.9264C22.4318 16.6861 22.4438 16.4415 22.4438 16.1993C22.4438 12.0858 19.0945 8.73914 14.9776 8.73914C14.9549 8.73914 14.933 8.73602 14.9111 8.7329C14.9078 8.73241 14.9044 8.73193 14.901 8.73146C14.8976 8.73194 14.8942 8.73242 14.8908 8.73291C14.869 8.73602 14.8471 8.73914 14.8244 8.73914C10.7075 8.73914 7.3582 12.0858 7.3582 16.1993C7.3582 16.4415 7.3702 16.6861 7.39376 16.9264C7.44611 17.4583 7.91578 17.875 8.46307 17.875C9.05588 17.875 9.53826 17.3931 9.53826 16.8007C9.53826 15.0063 10.0033 13.2427 10.8834 11.6901C11.0327 11.4268 11.3675 11.3345 11.6307 11.4835C11.8941 11.6326 11.9868 11.9669 11.8376 12.2301C11.0507 13.6182 10.6348 15.1952 10.6348 16.7904C10.6348 17.9972 9.66054 18.9706 8.46307 18.9706C7.33986 18.9706 6.41106 18.1378 6.3024 17.0334C6.27527 16.7577 6.26166 16.4771 6.26166 16.1993C6.26166 11.4816 10.1028 7.64349 14.8244 7.64349C14.8475 7.64349 14.8698 7.64669 14.8921 7.6499C14.8951 7.65032 14.8981 7.65075 14.901 7.65117C14.904 7.65076 14.9069 7.65033 14.9099 7.64991ZM18.6487 18.9761C18.6487 18.6727 18.8982 18.4268 19.2058 18.4268C19.5135 18.4268 19.763 18.6727 19.763 18.9761V19.7849C19.763 21.2566 18.5485 22.4538 17.0557 22.4538C16.1783 22.4538 15.3975 22.0399 14.9025 21.4C14.4075 22.0399 13.6265 22.4538 12.7491 22.4538C11.2564 22.4538 10.042 21.2566 10.042 19.7849V18.9761C10.042 18.6727 10.2914 18.4268 10.5991 18.4268C10.9068 18.4268 11.1562 18.6727 11.1562 18.9761V19.7849C11.1562 20.6509 11.8708 21.3553 12.7491 21.3553C13.6275 21.3553 14.3421 20.6509 14.3421 19.7849V18.4561C14.262 18.5018 14.1861 18.5572 14.1176 18.6247C13.8276 18.9106 13.3571 18.9105 13.0671 18.6247C12.7771 18.3387 12.7771 17.875 13.0672 17.5891C14.0709 16.5996 15.7044 16.5994 16.7081 17.5891C16.9983 17.875 16.9983 18.3387 16.7082 18.6247C16.5632 18.7676 16.373 18.8391 16.1829 18.8391C15.9929 18.8391 15.8027 18.7677 15.6577 18.6247C15.5977 18.5655 15.532 18.5157 15.4628 18.4733V19.7849C15.4628 20.6509 16.1774 21.3553 17.0557 21.3553C17.9341 21.3553 18.6487 20.6509 18.6487 19.7849V18.9761ZM12.5622 14.8573C13.0593 14.8573 13.4623 15.2622 13.4623 15.7617C13.4623 16.2612 13.0593 16.666 12.5622 16.666C12.0651 16.666 11.6621 16.2612 11.6621 15.7617C11.6621 15.2622 12.0651 14.8573 12.5622 14.8573ZM17.0627 14.8573C17.5598 14.8573 17.9628 15.2622 17.9628 15.7617C17.9628 16.2612 17.5598 16.666 17.0627 16.666C16.5656 16.666 16.1626 16.2612 16.1626 15.7617C16.1626 15.2622 16.5656 14.8573 17.0627 14.8573Z" fill="white"/>
</svg>
